<?xml version="1.0" encoding="iso-8859-1"?>
<!-- Generator: Adobe Illustrator 18.0.0, SVG Export Plug-In . SVG Version: 6.00 Build 0)  -->
<!DOCTYPE svg PUBLIC "-//W3C//DTD SVG 1.1//EN" "http://www.w3.org/Graphics/SVG/1.1/DTD/svg11.dtd">
<svg version="1.1" id="Capa_1" xmlns="http://www.w3.org/2000/svg" xmlns:xlink="http://www.w3.org/1999/xlink" x="0px" y="0px"
	 viewBox="0 0 151.785 151.785" style="enable-background:new 0 0 151.785 151.785;" xml:space="preserve">
<g>
	<polygon style="fill:#5E4535;" points="39.386,84.319 39.417,84.363 39.448,84.319 39.448,84.406 40.307,85.589 40.307,85.589 
		40.307,76.617 44.698,76.617 44.698,75.12 40.307,75.12 40.307,69.985 38.527,69.985 38.527,75.12 34.136,75.12 34.136,76.617 
		38.527,76.617 38.527,85.589 38.527,85.589 39.386,84.406 	"/>
	<path style="fill:#B2937D;" d="M45.435,140.983v-3.315H32.691v-14.284c0-2.889,3.031-5.239,6.757-5.239
		c2.599,0,4.857,1.146,5.986,2.818v-11.758h-5.986h-0.063H25.132v36.758h0.449v5.821h17.771v-10.802H45.435z"/>
	<polygon style="fill:#EFEFEF;" points="25.132,145.964 23.003,145.964 21.88,145.964 21.88,151.785 23.003,151.785 25.581,151.785 
		25.581,145.964 	"/>
	<path style="fill:#648786;" d="M39.323,118.4c-3.475,0.051-6.287,2.199-6.374,4.859h6.374V118.4z"/>
	<polygon style="fill:#648786;" points="39.323,129.539 39.323,123.51 32.941,123.51 32.941,129.934 39.323,129.934 	"/>
	<rect x="32.941" y="130.184" style="fill:#648786;" width="6.382" height="7.235"/>
	<path style="fill:#648786;" d="M39.573,118.4v4.859h5.861v-1.829C44.457,119.676,42.203,118.439,39.573,118.4z"/>
	<rect x="39.573" y="130.184" style="fill:#648786;" width="5.861" height="7.235"/>
	<polygon style="fill:#648786;" points="39.573,129.539 39.573,129.934 45.435,129.934 45.435,123.51 39.573,123.51 	"/>
	<path style="fill:#757574;" d="M45.435,137.419h-5.861v0.125h-0.25v-0.125h-6.382v-7.235h-0.125v-0.25h0.125v-6.424h-0.125v-0.125
		v-0.125h0.133c0.087-2.661,2.899-4.809,6.374-4.859v-0.13h0.25v0.13c2.63,0.039,4.884,1.276,5.861,3.031v-0.467
		c-1.13-1.673-3.388-2.818-5.986-2.818c-3.726,0-6.757,2.35-6.757,5.239v14.284h12.743V137.419z"/>
	<polygon style="fill:#593E2C;" points="39.573,118.4 39.573,118.271 39.323,118.271 39.323,118.4 39.323,123.26 32.949,123.26 
		32.816,123.26 32.816,123.385 32.816,123.51 32.941,123.51 39.323,123.51 39.323,129.539 39.323,129.934 32.941,129.934 
		32.816,129.934 32.816,130.184 32.941,130.184 39.323,130.184 39.323,137.419 39.323,137.544 39.573,137.544 39.573,137.419 
		39.573,130.184 45.435,130.184 45.435,129.934 39.573,129.934 39.573,129.539 39.573,123.51 45.435,123.51 45.435,123.26 
		39.573,123.26 	"/>
	<polygon style="fill:#D3B49F;" points="39.386,109.206 39.448,109.206 45.435,109.206 45.435,92.661 40.307,85.589 39.448,84.406 
		39.448,84.319 39.417,84.363 39.386,84.319 39.386,84.406 38.527,85.589 21.401,109.206 23.003,109.206 25.132,109.206 	"/>
	<rect x="23.003" y="109.206" style="fill:#D3D3D3;" width="2.129" height="36.758"/>
	<polygon style="fill:#5E4535;" points="112.337,84.319 112.368,84.363 112.399,84.319 112.399,84.406 113.258,85.589 
		113.258,85.589 113.258,76.617 117.649,76.617 117.649,75.12 113.258,75.12 113.258,69.985 111.48,69.985 111.48,75.12 
		107.088,75.12 107.088,76.617 111.48,76.617 111.48,85.588 112.337,84.406 	"/>
	<path style="fill:#B2937D;" d="M126.653,145.964v-36.758h-14.254h-0.063h-5.986v11.858c1.106-1.727,3.398-2.919,6.049-2.919
		c3.727,0,6.758,2.35,6.758,5.239v14.284h-12.807v3.315h2.006v10.802h17.807v-5.821H126.653z"/>
	<polygon style="fill:#EFEFEF;" points="126.653,145.964 126.163,145.964 126.163,151.785 128.721,151.785 129.864,151.785 
		129.864,145.964 128.782,145.964 	"/>
	<polygon style="fill:#648786;" points="112.274,129.539 112.274,123.51 106.351,123.51 106.351,129.934 112.274,129.934 	"/>
	<rect x="106.351" y="130.184" style="fill:#648786;" width="5.924" height="7.235"/>
	<path style="fill:#648786;" d="M118.899,123.26c-0.087-2.661-2.899-4.809-6.375-4.859v4.859H118.899z"/>
	<rect x="112.524" y="130.184" style="fill:#648786;" width="6.383" height="7.235"/>
	<path style="fill:#648786;" d="M112.274,118.4c-2.692,0.04-4.985,1.337-5.924,3.158v1.702h5.924V118.4z"/>
	<polygon style="fill:#648786;" points="112.524,129.539 112.524,129.934 118.907,129.934 118.907,123.51 112.524,123.51 	"/>
	<path style="fill:#757574;" d="M106.351,121.558c0.938-1.821,3.231-3.118,5.924-3.158v-0.13h0.25v0.13
		c3.476,0.051,6.288,2.199,6.375,4.859h0.133v0.125v0.125h-0.125v6.424h0.125v0.25h-0.125v7.235h-6.383v0.125h-0.25v-0.125h-5.924
		v0.25h12.807v-14.284c0-2.889-3.031-5.239-6.758-5.239c-2.65,0-4.942,1.192-6.049,2.919V121.558z"/>
	<polygon style="fill:#593E2C;" points="112.274,137.419 112.274,137.544 112.524,137.544 112.524,137.419 112.524,130.184 
		118.907,130.184 119.032,130.184 119.032,129.934 118.907,129.934 112.524,129.934 112.524,129.539 112.524,123.51 118.907,123.51 
		119.032,123.51 119.032,123.385 119.032,123.26 118.899,123.26 112.524,123.26 112.524,118.4 112.524,118.271 112.274,118.271 
		112.274,118.4 112.274,123.26 106.351,123.26 106.351,123.51 112.274,123.51 112.274,129.539 112.274,129.934 106.351,129.934 
		106.351,130.184 112.274,130.184 	"/>
	<polygon style="fill:#D3B49F;" points="112.337,109.206 112.399,109.206 126.653,109.206 128.721,109.206 128.782,109.206 
		130.384,109.206 113.258,85.589 112.399,84.406 112.399,84.319 112.368,84.363 112.337,84.319 112.337,84.406 111.48,85.588 
		106.351,92.661 106.351,109.206 	"/>
	<polygon style="fill:#D3D3D3;" points="126.653,109.206 126.653,145.964 128.782,145.964 128.782,109.206 128.721,109.206 	"/>
	<polygon style="fill:#5E4535;" points="75.835,26.598 75.893,26.678 75.951,26.598 75.951,26.757 77.543,28.953 77.543,12.305 
		85.691,12.305 85.691,9.527 77.543,9.527 77.543,0 74.243,0 74.243,9.527 66.094,9.527 66.094,12.305 74.243,12.305 74.243,28.953 
		75.835,26.757 	"/>
	<path style="fill:#B2937D;" d="M102.398,140.983V72.776H75.951h-0.116H49.387v68.207h0.832v10.802h2.993h2.557h1.144h37.919h1.123
		h2.578h2.957v-10.802H102.398z M96.869,124.913H79.645v-11.358h17.225V124.913z M63.519,84.234c0-5.302,5.577-9.615,12.433-9.615
		c6.854,0,12.431,4.313,12.431,9.615v26.397H63.519V84.234z M72.256,141.108H55.031v-11.357h17.225V141.108z M72.256,124.913H55.031
		v-11.358h17.225V124.913z M79.645,141.108v-11.357h17.225v11.357H79.645z"/>
	<polygon style="fill:#EFEFEF;" points="49.387,140.983 45.435,140.983 43.352,140.983 43.352,151.785 45.435,151.785 
		50.219,151.785 50.219,140.983 	"/>
	<polygon style="fill:#EFEFEF;" points="106.351,140.983 102.398,140.983 101.489,140.983 101.489,151.785 106.234,151.785 
		108.356,151.785 108.356,140.983 	"/>
	<rect x="63.769" y="113.805" style="fill:#648786;" width="8.237" height="10.858"/>
	<rect x="55.281" y="113.805" style="fill:#648786;" width="8.237" height="10.858"/>
	<path style="fill:#757574;" d="M55.031,113.555v11.358h17.225v-11.358H55.031z M63.769,113.68v0.125h8.237v10.858h-8.237v0.125
		h-0.25v-0.125h-8.237v-10.858h8.237v-0.125H63.769z"/>
	<polygon style="fill:#593E2C;" points="63.519,124.663 63.519,124.788 63.769,124.788 63.769,124.663 63.769,113.805 
		63.769,113.68 63.519,113.68 63.519,113.805 	"/>
	<rect x="88.382" y="113.805" style="fill:#648786;" width="8.237" height="10.858"/>
	<rect x="79.895" y="113.805" style="fill:#648786;" width="8.237" height="10.858"/>
	<path style="fill:#757574;" d="M79.645,113.555v11.358h17.225v-11.358H79.645z M88.132,124.788v-0.125h-8.237v-10.858h8.237v-0.125
		h0.25v0.125h8.237v10.858h-8.237v0.125H88.132z"/>
	<polygon style="fill:#593E2C;" points="88.382,113.805 88.382,113.68 88.132,113.68 88.132,113.805 88.132,124.663 88.132,124.788 
		88.382,124.788 88.382,124.663 	"/>
	<rect x="63.769" y="130.001" style="fill:#648786;" width="8.237" height="10.857"/>
	<rect x="55.281" y="130.001" style="fill:#648786;" width="8.237" height="10.857"/>
	<path style="fill:#757574;" d="M55.031,129.751v11.357h17.225v-11.357H55.031z M63.769,129.876v0.125h8.237v10.857h-8.237v0.125
		h-0.25v-0.125h-8.237v-10.857h8.237v-0.125H63.769z"/>
	<polygon style="fill:#593E2C;" points="63.519,140.858 63.519,140.983 63.769,140.983 63.769,140.858 63.769,130.001 
		63.769,129.876 63.519,129.876 63.519,130.001 	"/>
	<rect x="88.382" y="130.001" style="fill:#648786;" width="8.237" height="10.857"/>
	<rect x="79.895" y="130.001" style="fill:#648786;" width="8.237" height="10.857"/>
	<path style="fill:#757574;" d="M96.869,141.108v-11.357H79.645v11.357H96.869z M88.132,140.983v-0.125h-8.237v-10.857h8.237v-0.125
		h0.25v0.125h8.237v10.857h-8.237v0.125H88.132z"/>
	<polygon style="fill:#593E2C;" points="88.382,130.001 88.382,129.876 88.132,129.876 88.132,130.001 88.132,140.858 
		88.132,140.983 88.382,140.983 88.382,140.858 	"/>
	<rect x="63.769" y="84.359" style="fill:#648786;" width="12.057" height="12.134"/>
	<rect x="76.075" y="84.359" style="fill:#648786;" width="12.057" height="12.134"/>
	<path style="fill:#648786;" d="M75.825,74.874c-6.604,0.052-11.961,4.162-12.049,9.235h12.049V74.874z"/>
	<path style="fill:#648786;" d="M88.124,84.109c-0.088-5.074-5.444-9.184-12.049-9.235v9.235H88.124z"/>
	<rect x="76.075" y="96.743" style="fill:#648786;" width="12.057" height="13.638"/>
	<rect x="63.769" y="96.743" style="fill:#648786;" width="12.057" height="13.638"/>
	<path style="fill:#757574;" d="M88.382,84.234c0-5.302-5.576-9.615-12.431-9.615c-6.855,0-12.433,4.313-12.433,9.615v26.397h24.863
		V84.234z M88.257,84.234v0.125h-0.125v12.134h0.125v0.25h-0.125v13.638H76.075v0.125h-0.25v-0.125H63.769V96.743h-0.125v-0.25
		h0.125V84.359h-0.125v-0.125v-0.125h0.133c0.088-5.074,5.444-9.183,12.049-9.235v-0.13h0.25v0.13
		c6.604,0.051,11.961,4.162,12.049,9.235h0.133V84.234z"/>
	<polygon style="fill:#593E2C;" points="88.124,84.109 76.075,84.109 76.075,74.874 76.075,74.744 75.825,74.744 75.825,74.874 
		75.825,84.109 63.776,84.109 63.644,84.109 63.644,84.234 63.644,84.359 63.769,84.359 75.825,84.359 75.825,96.493 63.769,96.493 
		63.644,96.493 63.644,96.743 63.769,96.743 75.825,96.743 75.825,110.381 75.825,110.506 76.075,110.506 76.075,110.381 
		76.075,96.743 88.132,96.743 88.257,96.743 88.257,96.493 88.132,96.493 76.075,96.493 76.075,84.359 88.132,84.359 88.257,84.359 
		88.257,84.234 88.257,84.109 	"/>
	<polygon style="fill:#D3B49F;" points="75.835,72.776 75.951,72.776 102.398,72.776 106.234,72.776 106.351,72.776 109.321,72.776 
		77.543,28.953 75.951,26.757 75.951,26.598 75.893,26.678 75.835,26.598 75.835,26.757 74.243,28.953 42.465,72.776 45.435,72.776 
		49.387,72.776 	"/>
	<polygon style="fill:#D3D3D3;" points="45.435,120.964 45.435,121.431 45.435,123.26 45.435,123.51 45.435,129.934 45.435,130.184 
		45.435,137.419 45.435,137.669 45.435,140.983 49.387,140.983 49.387,72.776 45.435,72.776 45.435,92.661 45.435,109.206 	"/>
	<polygon style="fill:#D3D3D3;" points="102.398,72.776 102.398,140.983 106.351,140.983 106.351,137.669 106.351,137.419 
		106.351,130.184 106.351,129.934 106.351,123.51 106.351,123.26 106.351,121.558 106.351,121.064 106.351,109.206 106.351,92.661 
		106.351,72.776 106.234,72.776 	"/>
</g>
<g>
</g>
<g>
</g>
<g>
</g>
<g>
</g>
<g>
</g>
<g>
</g>
<g>
</g>
<g>
</g>
<g>
</g>
<g>
</g>
<g>
</g>
<g>
</g>
<g>
</g>
<g>
</g>
<g>
</g>
</svg>
